#!OML:ASF F:\VICON\USERDATA\INSTALL\rory3\rory3.ASF
:FULLY-SPECIFIED
:DEGREES
782
root 3.55542 16.5142 0.389651 10.2441 5.73551 6.14151
lowerback -5.41889 1.91161 -1.05576
upperback 1.07174 2.72961 -2.50427
thorax 4.22123 1.36297 -1.75089
lowerneck 0.797183 9.1345 3.34505
upperneck 58.0633 13.2231 6.6456
head 26.4001 6.45375 5.98522
rclavicle -1.07841e-014 -2.38542e-015
rhumerus -42.9511 3.9368 -88.8581
rradius 60.0497
rwrist -47.939
rhand -7.53256 -46.6529
rfingers 7.12502
rthumb 18.3586 -75.8065
lclavicle -1.07841e-014 -2.38542e-015
lhumerus -21.3277 -1.49396 85.817
lradius 37.1831
lwrist 72.1502
lhand -42.0441 -14.7829
lfingers 7.12502
lthumb -14.9377 14.6584
rfemur -52.0322 16.4256 2.91045
rtibia 75.9898
rfoot 5.90283 13.5792
rtoes -31.556
lfemur -28.92 -6.25755 -33.663
ltibia 44.8739
lfoot -21.8566 11.9741
ltoes 6.91806
783
root 3.55155 16.5118 0.391903 10.2464 5.72796 6.13205
lowerback -5.48368 1.97079 -0.991601
upperback 1.11769 2.80898 -2.54122
thorax 4.31271 1.40443 -1.81485
lowerneck 0.763131 9.08837 3.31807
upperneck 57.9759 13.1112 6.6914
head 26.2809 6.42109 5.97732
rclavicle 2.42517e-014 1.05356e-014
rhumerus -42.8688 3.76876 -88.8497
rradius 60.0311
rwrist -47.9363
rhand -7.51583 -46.6078
rfingers 7.12502
rthumb 18.3747 -75.76
lclavicle 2.42517e-014 1.05356e-014
lhumerus -21.2006 -1.68661 85.8189
lradius 37.1436
lwrist 72.2761
lhand -42.1205 -14.3951
lfingers 7.12502
lthumb -15.0112 15.0408
rfemur -52.0064 16.4001 2.95794
rtibia 75.9841
rfoot 5.71102 13.6071
rtoes -32.2097
lfemur -28.9501 -6.22527 -33.6445
ltibia 44.868
lfoot -21.7798 12.0289
ltoes 6.54182
784
root 3.54887 16.5102 0.392417 10.2372 5.76766 6.01993
lowerback -5.4311 1.94357 -0.851416
upperback 1.11116 2.75933 -2.49625
thorax 4.27911 1.38278 -1.85323
lowerneck 0.709566 9.12322 3.12716
upperneck 57.97 13.1294 6.82763
head 26.2132 6.40052 6.08801
rclavicle 3.47873e-015 -8.74653e-015
rhumerus -42.8753 3.81534 -88.8845
rradius 60.0343
rwrist -47.9077
rhand -7.5668 -46.3218
rfingers 7.12502
rthumb 18.3256 -75.4786
lclavicle 3.47873e-015 -8.74653e-015
lhumerus -21.2358 -1.63692 85.8004
lradius 37.2014
lwrist 72.2478
lhand -42.3357 -13.9651
lfingers 7.12502
lthumb -15.2185 15.4552
rfemur -51.937 16.3703 3.13063
rtibia 75.9348
rfoot 5.61382 13.4965
rtoes -32.6494
lfemur -28.9178 -6.28425 -33.5005
ltibia 44.7669
lfoot -21.6945 12.0642
ltoes 6.33484
785
root 3.54768 16.5189 0.394183 10.2378 5.82583 5.93748
lowerback -5.39386 2.29035 -0.45482
upperback 0.939267 3.20237 -2.78619
thorax 4.13155 1.61673 -2.33938
lowerneck 1.00082 8.7665 3.70911
upperneck 57.9161 12.3794 6.97098
head 26.1615 6.28391 5.92116
rclavicle 2.36554e-014 -1.05356e-014
rhumerus -43.3316 2.58042 -88.9229
rradius 60.1229
rwrist -47.8415
rhand -7.60977 -46.1669
rfingers 7.12502
rthumb 18.2843 -75.3275
lclavicle 2.36554e-014 -1.05356e-014
lhumerus -21.5249 -2.95234 85.8276
lradius 37.3491
lwrist 72.2584
lhand -42.4165 -13.7448
lfingers 7.12502
lthumb -15.2964 15.6696
rfemur -51.9915 16.4016 3.18989
rtibia 75.8798
rfoot 6.31311 13.3141
rtoes -31.0566
lfemur -28.8036 -6.39291 -33.3815
ltibia 44.5894
lfoot -21.6248 12.068
ltoes 6.47932
786
root 3.55104 16.5516 0.396939 10.27 5.84596 5.98527
lowerback -5.36425 1.88402 -0.780185
upperback 1.00532 2.6679 -2.44149
thorax 4.1292 1.33828 -1.84862
lowerneck 0.833912 9.13728 3.13414
upperneck 58.0126 13.2251 6.70157
head 26.2411 6.42881 6.02479
rclavicle 2.39039e-014 -9.93923e-016
rhumerus -42.9588 3.94687 -88.9287
rradius 59.9568
rwrist -47.9438
rhand -7.61055 -46.2312
rfingers 7.12502
rthumb 18.2835 -75.392
lclavicle 2.39039e-014 -9.93923e-016
lhumerus -21.5674 -1.48124 85.8759
lradius 37.4009
lwrist 71.7831
lhand -42.3449 -13.8294
lfingers 7.12502
lthumb -15.2274 15.5902
rfemur -52.143 16.4402 3.01262
rtibia 75.7662
rfoot 7.10552 13.5672
rtoes -29.7309
lfemur -28.6193 -6.47186 -33.4176
ltibia 44.3028
lfoot -21.5164 12.0734
ltoes 6.75411
